<svg xmlns="http://www.w3.org/2000/svg" viewBox="0 0 178.6 178.6"><path fill="#EE3124" d="M89.3 0C76.6 0 65.8 26.1 62.2 62.2 26.1 65.8 0 76.6 0 89.3c0 12.7 26.1 23.4 62.2 27.1 3.7 36.1 14.4 62.2 27.1 62.2 15.7 0 28.4-40 28.4-89.3S105 0 89.3 0z"/><linearGradient id="a" gradientUnits="userSpaceOnUse" x1="102.352" y1="70.294" x2="132.809" y2="123.046"><stop offset=".006" stop-color="#77787b"/><stop offset=".272" stop-color="#5c5d5f"/><stop offset=".569" stop-color="#404042"/><stop offset=".822" stop-color="#191919"/><stop offset="1"/></linearGradient><path fill="url(#a)" d="M116.4 62.2l-54.2 54.2c8.5.9 17.7 1.3 27.1 1.3 49.3 0 89.3-12.7 89.3-28.4 0-12.7-26.1-23.5-62.2-27.1z"/><path fill="#7A1600" d="M116.4 62.2l-54.2 54.2c8.5.9 17.7 1.3 27.1 1.3 9.4 0 18.6-.5 27.1-1.3.9-8.5 1.3-17.7 1.3-27.1s-.4-18.6-1.3-27.1z"/><path fill="#B32317" d="M62.2 116.4l54.2-54.2c-8.5-.9-17.6-1.3-27.1-1.3-9.4 0-18.6.5-27.1 1.3-.9 8.5-1.3 17.7-1.3 27.1s.4 18.5 1.3 27.1z"/></svg>